<svg width="140" height="19" viewBox="0 0 140 19" fill="none" xmlns="http://www.w3.org/2000/svg">
<path d="M7.83984 9.85547L11.2617 0.9375H14.5547L8.61328 15.0938L8.07422 16.1602C7.29297 17.5508 6.02734 18.2461 4.27734 18.2461L3.05859 18.1758L3.08203 15.832C3.26953 15.8633 3.60156 15.8789 4.07812 15.8789C4.92188 15.8789 5.51562 15.5195 5.85938 14.8008L6.46875 13.3594L0.632812 0.9375H3.86719L7.83984 9.85547ZM26.332 18H23.4844V7.61719H18.5391V18H15.6914V5.32031H26.332V18ZM28.8281 11.543C28.8281 10.3008 29.0742 9.18359 29.5664 8.19141C30.0586 7.19141 30.75 6.42578 31.6406 5.89453C32.5312 5.35547 33.5547 5.08594 34.7109 5.08594C36.4219 5.08594 37.8086 5.63672 38.8711 6.73828C39.9414 7.83984 40.5195 9.30078 40.6055 11.1211L40.6172 11.7891C40.6172 13.0391 40.375 14.1562 39.8906 15.1406C39.4141 16.125 38.7266 16.8867 37.8281 17.4258C36.9375 17.9648 35.9062 18.2344 34.7344 18.2344C32.9453 18.2344 31.5117 17.6406 30.4336 16.4531C29.3633 15.2578 28.8281 13.668 28.8281 11.6836V11.543ZM31.6758 11.7891C31.6758 13.0938 31.9453 14.1172 32.4844 14.8594C33.0234 15.5938 33.7734 15.9609 34.7344 15.9609C35.6953 15.9609 36.4414 15.5859 36.9727 14.8359C37.5117 14.0859 37.7812 12.9883 37.7812 11.543C37.7812 10.2617 37.5039 9.24609 36.9492 8.49609C36.4023 7.74609 35.6562 7.37109 34.7109 7.37109C33.7812 7.37109 33.043 7.74219 32.4961 8.48438C31.9492 9.21875 31.6758 10.3203 31.6758 11.7891ZM50.5547 14.4961L54.3047 5.32031H57.8672V18H55.0195V9.60938L51.5273 18H49.5938L46.0898 9.5625V18H43.2422V5.32031H46.8281L50.5547 14.4961ZM68.9883 5.32031H71.8242V18H68.9883V9.53906L64.0195 18H61.1836V5.32031H64.0195V13.7812L68.9883 5.32031ZM85.5938 18H82.7461V12.8789H77.8125V18H74.9648V5.32031H77.8125V10.6055H82.7461V5.32031H85.5938V18ZM96.2109 18C96.0859 17.7578 95.9766 17.3633 95.8828 16.8164C94.9766 17.7617 93.8672 18.2344 92.5547 18.2344C91.2812 18.2344 90.2422 17.8711 89.4375 17.1445C88.6328 16.418 88.2305 15.5195 88.2305 14.4492C88.2305 13.0977 88.7305 12.0625 89.7305 11.3438C90.7383 10.6172 92.1758 10.2539 94.043 10.2539H95.7891V9.42188C95.7891 8.76562 95.6055 8.24219 95.2383 7.85156C94.8711 7.45312 94.3125 7.25391 93.5625 7.25391C92.9141 7.25391 92.3828 7.41797 91.9688 7.74609C91.5547 8.06641 91.3477 8.47656 91.3477 8.97656H88.5C88.5 8.28125 88.7305 7.63281 89.1914 7.03125C89.6523 6.42188 90.2773 5.94531 91.0664 5.60156C91.8633 5.25781 92.75 5.08594 93.7266 5.08594C95.2109 5.08594 96.3945 5.46094 97.2773 6.21094C98.1602 6.95312 98.6133 8 98.6367 9.35156V15.0703C98.6367 16.2109 98.7969 17.1211 99.1172 17.8008V18H96.2109ZM93.082 15.9492C93.6445 15.9492 94.1719 15.8125 94.6641 15.5391C95.1641 15.2656 95.5391 14.8984 95.7891 14.4375V12.0469H94.2539C93.1992 12.0469 92.4062 12.2305 91.875 12.5977C91.3438 12.9648 91.0781 13.4844 91.0781 14.1562C91.0781 14.7031 91.2578 15.1406 91.6172 15.4688C91.9844 15.7891 92.4727 15.9492 93.082 15.9492ZM112.359 18H109.512V12.8789H104.578V18H101.73V5.32031H104.578V10.6055H109.512V5.32031H112.359V18ZM123.316 5.32031H126.152V18H123.316V9.53906L118.348 18H115.512V5.32031H118.348V13.7812L123.316 5.32031ZM139.336 5.32031V18H136.5V13.3477H133.84L131.133 18H128.18L131.168 12.8789C130.387 12.5508 129.785 12.082 129.363 11.4727C128.949 10.8633 128.742 10.1641 128.742 9.375C128.742 8.19531 129.195 7.23047 130.102 6.48047C131.016 5.72266 132.246 5.33594 133.793 5.32031H139.336ZM131.59 9.44531C131.59 9.97656 131.785 10.4102 132.176 10.7461C132.574 11.0742 133.082 11.2383 133.699 11.2383H136.5V7.58203H133.875C133.18 7.58203 132.625 7.75781 132.211 8.10938C131.797 8.46094 131.59 8.90625 131.59 9.44531Z" fill="#C7F6FF"/>
</svg>
