<svg width="477" height="311" viewBox="0 0 477 311" fill="none" xmlns="http://www.w3.org/2000/svg">
<path d="M272.148 125.445L273.016 116.938H281.758V118.941H274.855L274.34 123.594C275.176 123.102 276.125 122.855 277.188 122.855C278.742 122.855 279.977 123.371 280.891 124.402C281.805 125.426 282.262 126.812 282.262 128.562C282.262 130.32 281.785 131.707 280.832 132.723C279.887 133.73 278.562 134.234 276.859 134.234C275.352 134.234 274.121 133.816 273.168 132.98C272.215 132.145 271.672 130.988 271.539 129.512H273.59C273.723 130.488 274.07 131.227 274.633 131.727C275.195 132.219 275.938 132.465 276.859 132.465C277.867 132.465 278.656 132.121 279.227 131.434C279.805 130.746 280.094 129.797 280.094 128.586C280.094 127.445 279.781 126.531 279.156 125.844C278.539 125.148 277.715 124.801 276.684 124.801C275.738 124.801 274.996 125.008 274.457 125.422L273.883 125.891L272.148 125.445ZM295.328 126.723C295.328 129.262 294.895 131.148 294.027 132.383C293.16 133.617 291.805 134.234 289.961 134.234C288.141 134.234 286.793 133.633 285.918 132.43C285.043 131.219 284.59 129.414 284.559 127.016V124.121C284.559 121.613 284.992 119.75 285.859 118.531C286.727 117.312 288.086 116.703 289.938 116.703C291.773 116.703 293.125 117.293 293.992 118.473C294.859 119.645 295.305 121.457 295.328 123.91V126.723ZM293.16 123.758C293.16 121.922 292.902 120.586 292.387 119.75C291.871 118.906 291.055 118.484 289.938 118.484C288.828 118.484 288.02 118.902 287.512 119.738C287.004 120.574 286.742 121.859 286.727 123.594V127.062C286.727 128.906 286.992 130.27 287.523 131.152C288.062 132.027 288.875 132.465 289.961 132.465C291.031 132.465 291.824 132.051 292.34 131.223C292.863 130.395 293.137 129.09 293.16 127.309V123.758ZM297.918 120.219C297.918 119.195 298.242 118.352 298.891 117.688C299.547 117.023 300.387 116.691 301.41 116.691C302.449 116.691 303.289 117.027 303.93 117.699C304.578 118.363 304.902 119.227 304.902 120.289V121.121C304.902 122.152 304.574 122.996 303.918 123.652C303.27 124.301 302.441 124.625 301.434 124.625C300.418 124.625 299.578 124.301 298.914 123.652C298.25 122.996 297.918 122.125 297.918 121.039V120.219ZM299.535 121.121C299.535 121.73 299.707 122.234 300.051 122.633C300.395 123.023 300.855 123.219 301.434 123.219C301.988 123.219 302.434 123.027 302.77 122.645C303.113 122.262 303.285 121.738 303.285 121.074V120.219C303.285 119.609 303.117 119.105 302.781 118.707C302.445 118.309 301.988 118.109 301.41 118.109C300.832 118.109 300.375 118.309 300.039 118.707C299.703 119.105 299.535 119.625 299.535 120.266V121.121ZM306.227 129.816C306.227 128.793 306.551 127.953 307.199 127.297C307.855 126.633 308.695 126.301 309.719 126.301C310.742 126.301 311.582 126.629 312.238 127.285C312.895 127.941 313.223 128.812 313.223 129.898V130.73C313.223 131.754 312.895 132.598 312.238 133.262C311.59 133.918 310.758 134.246 309.742 134.246C308.727 134.246 307.887 133.922 307.223 133.273C306.559 132.617 306.227 131.746 306.227 130.66V129.816ZM307.844 130.73C307.844 131.348 308.016 131.855 308.359 132.254C308.703 132.645 309.164 132.84 309.742 132.84C310.305 132.84 310.754 132.648 311.09 132.266C311.426 131.875 311.594 131.348 311.594 130.684V129.816C311.594 129.199 311.422 128.695 311.078 128.305C310.742 127.914 310.289 127.719 309.719 127.719C309.164 127.719 308.711 127.914 308.359 128.305C308.016 128.688 307.844 129.207 307.844 129.863V130.73ZM301.926 132.711L300.695 131.938L309.027 118.602L310.258 119.375L301.926 132.711Z" fill="black"/>
<path d="M419.148 122.445L420.016 113.938H428.758V115.941H421.855L421.34 120.594C422.176 120.102 423.125 119.855 424.188 119.855C425.742 119.855 426.977 120.371 427.891 121.402C428.805 122.426 429.262 123.812 429.262 125.562C429.262 127.32 428.785 128.707 427.832 129.723C426.887 130.73 425.562 131.234 423.859 131.234C422.352 131.234 421.121 130.816 420.168 129.98C419.215 129.145 418.672 127.988 418.539 126.512H420.59C420.723 127.488 421.07 128.227 421.633 128.727C422.195 129.219 422.938 129.465 423.859 129.465C424.867 129.465 425.656 129.121 426.227 128.434C426.805 127.746 427.094 126.797 427.094 125.586C427.094 124.445 426.781 123.531 426.156 122.844C425.539 122.148 424.715 121.801 423.684 121.801C422.738 121.801 421.996 122.008 421.457 122.422L420.883 122.891L419.148 122.445ZM442.328 123.723C442.328 126.262 441.895 128.148 441.027 129.383C440.16 130.617 438.805 131.234 436.961 131.234C435.141 131.234 433.793 130.633 432.918 129.43C432.043 128.219 431.59 126.414 431.559 124.016V121.121C431.559 118.613 431.992 116.75 432.859 115.531C433.727 114.312 435.086 113.703 436.938 113.703C438.773 113.703 440.125 114.293 440.992 115.473C441.859 116.645 442.305 118.457 442.328 120.91V123.723ZM440.16 120.758C440.16 118.922 439.902 117.586 439.387 116.75C438.871 115.906 438.055 115.484 436.938 115.484C435.828 115.484 435.02 115.902 434.512 116.738C434.004 117.574 433.742 118.859 433.727 120.594V124.062C433.727 125.906 433.992 127.27 434.523 128.152C435.062 129.027 435.875 129.465 436.961 129.465C438.031 129.465 438.824 129.051 439.34 128.223C439.863 127.395 440.137 126.09 440.16 124.309V120.758ZM444.918 117.219C444.918 116.195 445.242 115.352 445.891 114.688C446.547 114.023 447.387 113.691 448.41 113.691C449.449 113.691 450.289 114.027 450.93 114.699C451.578 115.363 451.902 116.227 451.902 117.289V118.121C451.902 119.152 451.574 119.996 450.918 120.652C450.27 121.301 449.441 121.625 448.434 121.625C447.418 121.625 446.578 121.301 445.914 120.652C445.25 119.996 444.918 119.125 444.918 118.039V117.219ZM446.535 118.121C446.535 118.73 446.707 119.234 447.051 119.633C447.395 120.023 447.855 120.219 448.434 120.219C448.988 120.219 449.434 120.027 449.77 119.645C450.113 119.262 450.285 118.738 450.285 118.074V117.219C450.285 116.609 450.117 116.105 449.781 115.707C449.445 115.309 448.988 115.109 448.41 115.109C447.832 115.109 447.375 115.309 447.039 115.707C446.703 116.105 446.535 116.625 446.535 117.266V118.121ZM453.227 126.816C453.227 125.793 453.551 124.953 454.199 124.297C454.855 123.633 455.695 123.301 456.719 123.301C457.742 123.301 458.582 123.629 459.238 124.285C459.895 124.941 460.223 125.812 460.223 126.898V127.73C460.223 128.754 459.895 129.598 459.238 130.262C458.59 130.918 457.758 131.246 456.742 131.246C455.727 131.246 454.887 130.922 454.223 130.273C453.559 129.617 453.227 128.746 453.227 127.66V126.816ZM454.844 127.73C454.844 128.348 455.016 128.855 455.359 129.254C455.703 129.645 456.164 129.84 456.742 129.84C457.305 129.84 457.754 129.648 458.09 129.266C458.426 128.875 458.594 128.348 458.594 127.684V126.816C458.594 126.199 458.422 125.695 458.078 125.305C457.742 124.914 457.289 124.719 456.719 124.719C456.164 124.719 455.711 124.914 455.359 125.305C455.016 125.688 454.844 126.207 454.844 126.863V127.73ZM448.926 129.711L447.695 128.938L456.027 115.602L457.258 116.375L448.926 129.711Z" fill="black"/>
<path d="M46.3398 299.855L49.7617 290.938H53.0547L47.1133 305.094L46.5742 306.16C45.793 307.551 44.5273 308.246 42.7773 308.246L41.5586 308.176L41.582 305.832C41.7695 305.863 42.1016 305.879 42.5781 305.879C43.4219 305.879 44.0156 305.52 44.3594 304.801L44.9688 303.359L39.1328 290.938H42.3672L46.3398 299.855ZM64.832 308H61.9844V297.617H57.0391V308H54.1914V295.32H64.832V308ZM67.3281 301.543C67.3281 300.301 67.5742 299.184 68.0664 298.191C68.5586 297.191 69.25 296.426 70.1406 295.895C71.0312 295.355 72.0547 295.086 73.2109 295.086C74.9219 295.086 76.3086 295.637 77.3711 296.738C78.4414 297.84 79.0195 299.301 79.1055 301.121L79.1172 301.789C79.1172 303.039 78.875 304.156 78.3906 305.141C77.9141 306.125 77.2266 306.887 76.3281 307.426C75.4375 307.965 74.4062 308.234 73.2344 308.234C71.4453 308.234 70.0117 307.641 68.9336 306.453C67.8633 305.258 67.3281 303.668 67.3281 301.684V301.543ZM70.1758 301.789C70.1758 303.094 70.4453 304.117 70.9844 304.859C71.5234 305.594 72.2734 305.961 73.2344 305.961C74.1953 305.961 74.9414 305.586 75.4727 304.836C76.0117 304.086 76.2812 302.988 76.2812 301.543C76.2812 300.262 76.0039 299.246 75.4492 298.496C74.9023 297.746 74.1562 297.371 73.2109 297.371C72.2812 297.371 71.543 297.742 70.9961 298.484C70.4492 299.219 70.1758 300.32 70.1758 301.789ZM89.0547 304.496L92.8047 295.32H96.3672V308H93.5195V299.609L90.0273 308H88.0938L84.5898 299.562V308H81.7422V295.32H85.3281L89.0547 304.496ZM107.488 295.32H110.324V308H107.488V299.539L102.52 308H99.6836V295.32H102.52V303.781L107.488 295.32ZM124.094 308H121.246V302.879H116.312V308H113.465V295.32H116.312V300.605H121.246V295.32H124.094V308ZM134.711 308C134.586 307.758 134.477 307.363 134.383 306.816C133.477 307.762 132.367 308.234 131.055 308.234C129.781 308.234 128.742 307.871 127.938 307.145C127.133 306.418 126.73 305.52 126.73 304.449C126.73 303.098 127.23 302.062 128.23 301.344C129.238 300.617 130.676 300.254 132.543 300.254H134.289V299.422C134.289 298.766 134.105 298.242 133.738 297.852C133.371 297.453 132.812 297.254 132.062 297.254C131.414 297.254 130.883 297.418 130.469 297.746C130.055 298.066 129.848 298.477 129.848 298.977H127C127 298.281 127.23 297.633 127.691 297.031C128.152 296.422 128.777 295.945 129.566 295.602C130.363 295.258 131.25 295.086 132.227 295.086C133.711 295.086 134.895 295.461 135.777 296.211C136.66 296.953 137.113 298 137.137 299.352V305.07C137.137 306.211 137.297 307.121 137.617 307.801V308H134.711ZM131.582 305.949C132.145 305.949 132.672 305.812 133.164 305.539C133.664 305.266 134.039 304.898 134.289 304.438V302.047H132.754C131.699 302.047 130.906 302.23 130.375 302.598C129.844 302.965 129.578 303.484 129.578 304.156C129.578 304.703 129.758 305.141 130.117 305.469C130.484 305.789 130.973 305.949 131.582 305.949ZM150.859 308H148.012V302.879H143.078V308H140.23V295.32H143.078V300.605H148.012V295.32H150.859V308ZM161.816 295.32H164.652V308H161.816V299.539L156.848 308H154.012V295.32H156.848V303.781L161.816 295.32ZM177.836 295.32V308H175V303.348H172.34L169.633 308H166.68L169.668 302.879C168.887 302.551 168.285 302.082 167.863 301.473C167.449 300.863 167.242 300.164 167.242 299.375C167.242 298.195 167.695 297.23 168.602 296.48C169.516 295.723 170.746 295.336 172.293 295.32H177.836ZM170.09 299.445C170.09 299.977 170.285 300.41 170.676 300.746C171.074 301.074 171.582 301.238 172.199 301.238H175V297.582H172.375C171.68 297.582 171.125 297.758 170.711 298.109C170.297 298.461 170.09 298.906 170.09 299.445Z" fill="black"/>
<path d="M24.4609 11.5C24.0078 12.0391 23.4648 12.4727 22.832 12.8008C22.207 13.1289 21.5195 13.293 20.7695 13.293C19.7852 13.293 18.9258 13.0508 18.1914 12.5664C17.4648 12.082 16.9023 11.4023 16.5039 10.5273C16.1055 9.64453 15.9062 8.67188 15.9062 7.60938C15.9062 6.46875 16.1211 5.44141 16.5508 4.52734C16.9883 3.61328 17.6055 2.91406 18.4023 2.42969C19.1992 1.94531 20.1289 1.70312 21.1914 1.70312C22.8789 1.70312 24.207 2.33594 25.1758 3.60156C26.1523 4.85937 26.6406 6.57812 26.6406 8.75781V9.39062C26.6406 12.7109 25.9844 15.1367 24.6719 16.668C23.3594 18.1914 21.3789 18.9727 18.7305 19.0117H18.3086V17.1836H18.7656C20.5547 17.1523 21.9297 16.6875 22.8906 15.7891C23.8516 14.8828 24.375 13.4531 24.4609 11.5ZM21.1211 11.5C21.8477 11.5 22.5156 11.2773 23.125 10.832C23.7422 10.3867 24.1914 9.83594 24.4727 9.17969V8.3125C24.4727 6.89063 24.1641 5.73438 23.5469 4.84375C22.9297 3.95312 22.1484 3.50781 21.2031 3.50781C20.25 3.50781 19.4844 3.875 18.9062 4.60938C18.3281 5.33594 18.0391 6.29688 18.0391 7.49219C18.0391 8.65625 18.3164 9.61719 18.8711 10.375C19.4336 11.125 20.1836 11.5 21.1211 11.5ZM40.3281 11.7227C40.3281 14.2617 39.8945 16.1484 39.0273 17.3828C38.1602 18.6172 36.8047 19.2344 34.9609 19.2344C33.1406 19.2344 31.793 18.6328 30.918 17.4297C30.043 16.2188 29.5898 14.4141 29.5586 12.0156V9.12109C29.5586 6.61328 29.9922 4.75 30.8594 3.53125C31.7266 2.3125 33.0859 1.70312 34.9375 1.70312C36.7734 1.70312 38.125 2.29297 38.9922 3.47266C39.8594 4.64453 40.3047 6.45703 40.3281 8.91016V11.7227ZM38.1602 8.75781C38.1602 6.92187 37.9023 5.58594 37.3867 4.75C36.8711 3.90625 36.0547 3.48438 34.9375 3.48438C33.8281 3.48438 33.0195 3.90234 32.5117 4.73828C32.0039 5.57422 31.7422 6.85938 31.7266 8.59375V12.0625C31.7266 13.9062 31.9922 15.2695 32.5234 16.1523C33.0625 17.0273 33.875 17.4648 34.9609 17.4648C36.0312 17.4648 36.8242 17.0508 37.3398 16.2227C37.8633 15.3945 38.1367 14.0898 38.1602 12.3086V8.75781ZM42.918 5.21875C42.918 4.19531 43.2422 3.35156 43.8906 2.6875C44.5469 2.02344 45.3867 1.69141 46.4102 1.69141C47.4492 1.69141 48.2891 2.02734 48.9297 2.69922C49.5781 3.36328 49.9023 4.22656 49.9023 5.28906V6.12109C49.9023 7.15234 49.5742 7.99609 48.918 8.65234C48.2695 9.30078 47.4414 9.625 46.4336 9.625C45.418 9.625 44.5781 9.30078 43.9141 8.65234C43.25 7.99609 42.918 7.125 42.918 6.03906V5.21875ZM44.5352 6.12109C44.5352 6.73047 44.707 7.23438 45.0508 7.63281C45.3945 8.02344 45.8555 8.21875 46.4336 8.21875C46.9883 8.21875 47.4336 8.02734 47.7695 7.64453C48.1133 7.26172 48.2852 6.73828 48.2852 6.07422V5.21875C48.2852 4.60938 48.1172 4.10547 47.7812 3.70703C47.4453 3.30859 46.9883 3.10938 46.4102 3.10938C45.832 3.10938 45.375 3.30859 45.0391 3.70703C44.7031 4.10547 44.5352 4.625 44.5352 5.26562V6.12109ZM51.2266 14.8164C51.2266 13.793 51.5508 12.9531 52.1992 12.2969C52.8555 11.6328 53.6953 11.3008 54.7188 11.3008C55.7422 11.3008 56.582 11.6289 57.2383 12.2852C57.8945 12.9414 58.2227 13.8125 58.2227 14.8984V15.7305C58.2227 16.7539 57.8945 17.5977 57.2383 18.2617C56.5898 18.918 55.7578 19.2461 54.7422 19.2461C53.7266 19.2461 52.8867 18.9219 52.2227 18.2734C51.5586 17.6172 51.2266 16.7461 51.2266 15.6602V14.8164ZM52.8438 15.7305C52.8438 16.3477 53.0156 16.8555 53.3594 17.2539C53.7031 17.6445 54.1641 17.8398 54.7422 17.8398C55.3047 17.8398 55.7539 17.6484 56.0898 17.2656C56.4258 16.875 56.5938 16.3477 56.5938 15.6836V14.8164C56.5938 14.1992 56.4219 13.6953 56.0781 13.3047C55.7422 12.9141 55.2891 12.7188 54.7188 12.7188C54.1641 12.7188 53.7109 12.9141 53.3594 13.3047C53.0156 13.6875 52.8438 14.207 52.8438 14.8633V15.7305ZM46.9258 17.7109L45.6953 16.9375L54.0273 3.60156L55.2578 4.375L46.9258 17.7109Z" fill="black"/>
<path d="M95.8867 211.445L96.7539 202.938H105.496V204.941H98.5938L98.0781 209.594C98.9141 209.102 99.8633 208.855 100.926 208.855C102.48 208.855 103.715 209.371 104.629 210.402C105.543 211.426 106 212.812 106 214.562C106 216.32 105.523 217.707 104.57 218.723C103.625 219.73 102.301 220.234 100.598 220.234C99.0898 220.234 97.8594 219.816 96.9062 218.98C95.9531 218.145 95.4102 216.988 95.2773 215.512H97.3281C97.4609 216.488 97.8086 217.227 98.3711 217.727C98.9336 218.219 99.6758 218.465 100.598 218.465C101.605 218.465 102.395 218.121 102.965 217.434C103.543 216.746 103.832 215.797 103.832 214.586C103.832 213.445 103.52 212.531 102.895 211.844C102.277 211.148 101.453 210.801 100.422 210.801C99.4766 210.801 98.7344 211.008 98.1953 211.422L97.6211 211.891L95.8867 211.445ZM108.18 206.219C108.18 205.195 108.504 204.352 109.152 203.688C109.809 203.023 110.648 202.691 111.672 202.691C112.711 202.691 113.551 203.027 114.191 203.699C114.84 204.363 115.164 205.227 115.164 206.289V207.121C115.164 208.152 114.836 208.996 114.18 209.652C113.531 210.301 112.703 210.625 111.695 210.625C110.68 210.625 109.84 210.301 109.176 209.652C108.512 208.996 108.18 208.125 108.18 207.039V206.219ZM109.797 207.121C109.797 207.73 109.969 208.234 110.312 208.633C110.656 209.023 111.117 209.219 111.695 209.219C112.25 209.219 112.695 209.027 113.031 208.645C113.375 208.262 113.547 207.738 113.547 207.074V206.219C113.547 205.609 113.379 205.105 113.043 204.707C112.707 204.309 112.25 204.109 111.672 204.109C111.094 204.109 110.637 204.309 110.301 204.707C109.965 205.105 109.797 205.625 109.797 206.266V207.121ZM116.488 215.816C116.488 214.793 116.812 213.953 117.461 213.297C118.117 212.633 118.957 212.301 119.98 212.301C121.004 212.301 121.844 212.629 122.5 213.285C123.156 213.941 123.484 214.812 123.484 215.898V216.73C123.484 217.754 123.156 218.598 122.5 219.262C121.852 219.918 121.02 220.246 120.004 220.246C118.988 220.246 118.148 219.922 117.484 219.273C116.82 218.617 116.488 217.746 116.488 216.66V215.816ZM118.105 216.73C118.105 217.348 118.277 217.855 118.621 218.254C118.965 218.645 119.426 218.84 120.004 218.84C120.566 218.84 121.016 218.648 121.352 218.266C121.688 217.875 121.855 217.348 121.855 216.684V215.816C121.855 215.199 121.684 214.695 121.34 214.305C121.004 213.914 120.551 213.719 119.98 213.719C119.426 213.719 118.973 213.914 118.621 214.305C118.277 214.688 118.105 215.207 118.105 215.863V216.73ZM112.188 218.711L110.957 217.938L119.289 204.602L120.52 205.375L112.188 218.711Z" fill="black"/>
<path d="M173.887 211.445L174.754 202.938H183.496V204.941H176.594L176.078 209.594C176.914 209.102 177.863 208.855 178.926 208.855C180.48 208.855 181.715 209.371 182.629 210.402C183.543 211.426 184 212.812 184 214.562C184 216.32 183.523 217.707 182.57 218.723C181.625 219.73 180.301 220.234 178.598 220.234C177.09 220.234 175.859 219.816 174.906 218.98C173.953 218.145 173.41 216.988 173.277 215.512H175.328C175.461 216.488 175.809 217.227 176.371 217.727C176.934 218.219 177.676 218.465 178.598 218.465C179.605 218.465 180.395 218.121 180.965 217.434C181.543 216.746 181.832 215.797 181.832 214.586C181.832 213.445 181.52 212.531 180.895 211.844C180.277 211.148 179.453 210.801 178.422 210.801C177.477 210.801 176.734 211.008 176.195 211.422L175.621 211.891L173.887 211.445ZM186.18 206.219C186.18 205.195 186.504 204.352 187.152 203.688C187.809 203.023 188.648 202.691 189.672 202.691C190.711 202.691 191.551 203.027 192.191 203.699C192.84 204.363 193.164 205.227 193.164 206.289V207.121C193.164 208.152 192.836 208.996 192.18 209.652C191.531 210.301 190.703 210.625 189.695 210.625C188.68 210.625 187.84 210.301 187.176 209.652C186.512 208.996 186.18 208.125 186.18 207.039V206.219ZM187.797 207.121C187.797 207.73 187.969 208.234 188.312 208.633C188.656 209.023 189.117 209.219 189.695 209.219C190.25 209.219 190.695 209.027 191.031 208.645C191.375 208.262 191.547 207.738 191.547 207.074V206.219C191.547 205.609 191.379 205.105 191.043 204.707C190.707 204.309 190.25 204.109 189.672 204.109C189.094 204.109 188.637 204.309 188.301 204.707C187.965 205.105 187.797 205.625 187.797 206.266V207.121ZM194.488 215.816C194.488 214.793 194.812 213.953 195.461 213.297C196.117 212.633 196.957 212.301 197.98 212.301C199.004 212.301 199.844 212.629 200.5 213.285C201.156 213.941 201.484 214.812 201.484 215.898V216.73C201.484 217.754 201.156 218.598 200.5 219.262C199.852 219.918 199.02 220.246 198.004 220.246C196.988 220.246 196.148 219.922 195.484 219.273C194.82 218.617 194.488 217.746 194.488 216.66V215.816ZM196.105 216.73C196.105 217.348 196.277 217.855 196.621 218.254C196.965 218.645 197.426 218.84 198.004 218.84C198.566 218.84 199.016 218.648 199.352 218.266C199.688 217.875 199.855 217.348 199.855 216.684V215.816C199.855 215.199 199.684 214.695 199.34 214.305C199.004 213.914 198.551 213.719 197.98 213.719C197.426 213.719 196.973 213.914 196.621 214.305C196.277 214.688 196.105 215.207 196.105 215.863V216.73ZM190.188 218.711L188.957 217.938L197.289 204.602L198.52 205.375L190.188 218.711Z" fill="black"/>
<rect x="72" y="237" width="75" height="38" fill="url(#paint0_linear_647_3)"/>
<rect x="147" y="237" width="75" height="38" fill="url(#paint1_linear_647_3)" fill-opacity="0.25"/>
<rect y="35" width="75" height="240" fill="url(#paint2_linear_647_3)"/>
<path d="M336.309 299.914C336.309 301.586 336.02 303.055 335.441 304.32C334.863 305.578 334.035 306.547 332.957 307.227C331.887 307.898 330.652 308.234 329.254 308.234C327.871 308.234 326.637 307.898 325.551 307.227C324.473 306.547 323.637 305.582 323.043 304.332C322.457 303.082 322.16 301.641 322.152 300.008V299.047C322.152 297.383 322.445 295.914 323.031 294.641C323.625 293.367 324.457 292.395 325.527 291.723C326.605 291.043 327.84 290.703 329.23 290.703C330.621 290.703 331.852 291.039 332.922 291.711C334 292.375 334.832 293.336 335.418 294.594C336.004 295.844 336.301 297.301 336.309 298.965V299.914ZM333.344 299.023C333.344 297.133 332.984 295.684 332.266 294.676C331.555 293.668 330.543 293.164 329.23 293.164C327.949 293.164 326.945 293.668 326.219 294.676C325.5 295.676 325.133 297.094 325.117 298.93V299.914C325.117 301.789 325.48 303.238 326.207 304.262C326.941 305.285 327.957 305.797 329.254 305.797C330.566 305.797 331.574 305.297 332.277 304.297C332.988 303.297 333.344 301.836 333.344 299.914V299.023ZM348.965 297.582H344.852V308H342.004V297.582H337.938V295.32H348.965V297.582ZM351.086 308V295.32H356.23C357.965 295.32 359.285 295.625 360.191 296.234C361.098 296.836 361.551 297.703 361.551 298.836C361.551 299.422 361.367 299.949 361 300.418C360.641 300.879 360.105 301.234 359.395 301.484C360.223 301.656 360.879 302.004 361.363 302.527C361.848 303.051 362.09 303.668 362.09 304.379C362.09 305.559 361.652 306.457 360.777 307.074C359.91 307.691 358.66 308 357.027 308H351.086ZM353.934 302.598V305.75H357.051C358.512 305.75 359.242 305.227 359.242 304.18C359.242 303.125 358.5 302.598 357.016 302.598H353.934ZM353.934 300.559H356.277C357.895 300.559 358.703 300.082 358.703 299.129C358.703 298.129 357.938 297.613 356.406 297.582H353.934V300.559ZM370.141 308.234C368.336 308.234 366.871 307.668 365.746 306.535C364.629 305.395 364.07 303.879 364.07 301.988V301.637C364.07 300.371 364.312 299.242 364.797 298.25C365.289 297.25 365.977 296.473 366.859 295.918C367.742 295.363 368.727 295.086 369.812 295.086C371.539 295.086 372.871 295.637 373.809 296.738C374.754 297.84 375.227 299.398 375.227 301.414V302.562H366.941C367.027 303.609 367.375 304.438 367.984 305.047C368.602 305.656 369.375 305.961 370.305 305.961C371.609 305.961 372.672 305.434 373.492 304.379L375.027 305.844C374.52 306.602 373.84 307.191 372.988 307.613C372.145 308.027 371.195 308.234 370.141 308.234ZM369.801 297.371C369.02 297.371 368.387 297.645 367.902 298.191C367.426 298.738 367.121 299.5 366.988 300.477H372.414V300.266C372.352 299.312 372.098 298.594 371.652 298.109C371.207 297.617 370.59 297.371 369.801 297.371ZM387.285 297.582H383.172V308H380.324V297.582H376.258V295.32H387.285V297.582ZM392.254 299.352H395.043C396.082 299.352 396.988 299.531 397.762 299.891C398.535 300.25 399.121 300.754 399.52 301.402C399.926 302.051 400.129 302.805 400.129 303.664C400.129 304.969 399.668 306.016 398.746 306.805C397.824 307.594 396.598 307.992 395.066 308H389.406V295.32H392.254V299.352ZM405.086 308H402.238V295.32H405.086V308ZM392.254 301.637V305.727H395.031C395.727 305.727 396.273 305.555 396.672 305.211C397.078 304.859 397.281 304.363 397.281 303.723C397.281 303.082 397.082 302.578 396.684 302.211C396.293 301.836 395.762 301.645 395.09 301.637H392.254Z" fill="black"/>
<rect width="75" height="1" transform="matrix(1 0 0 -1 327 275)" fill="url(#paint3_linear_647_3)"/>
<rect x="402" y="149" width="75" height="126" fill="url(#paint4_linear_647_3)" fill-opacity="0.25"/>
<rect x="255" y="149" width="75" height="126" fill="url(#paint5_linear_647_3)"/>
<defs>
<linearGradient id="paint0_linear_647_3" x1="109.5" y1="237" x2="109.5" y2="275" gradientUnits="userSpaceOnUse">
<stop stop-color="#F33D4B"/>
<stop offset="1" stop-color="#FF4F12"/>
</linearGradient>
<linearGradient id="paint1_linear_647_3" x1="184.5" y1="237" x2="184.5" y2="275" gradientUnits="userSpaceOnUse">
<stop/>
<stop offset="1" stop-color="#575757"/>
</linearGradient>
<linearGradient id="paint2_linear_647_3" x1="37.5" y1="35" x2="37.5" y2="275" gradientUnits="userSpaceOnUse">
<stop stop-color="#27CDA3"/>
<stop offset="1" stop-color="#19D7A5"/>
</linearGradient>
<linearGradient id="paint3_linear_647_3" x1="37.5" y1="0" x2="37.5" y2="1" gradientUnits="userSpaceOnUse">
<stop stop-color="#F33D4B"/>
<stop offset="1" stop-color="#FF4F12"/>
</linearGradient>
<linearGradient id="paint4_linear_647_3" x1="439.5" y1="149" x2="439.5" y2="275" gradientUnits="userSpaceOnUse">
<stop/>
<stop offset="1" stop-color="#575757"/>
</linearGradient>
<linearGradient id="paint5_linear_647_3" x1="292.5" y1="149" x2="292.5" y2="275" gradientUnits="userSpaceOnUse">
<stop stop-color="#27CDA3"/>
<stop offset="1" stop-color="#19D7A5"/>
</linearGradient>
</defs>
</svg>
